<svg xmlns="http://www.w3.org/2000/svg" xmlns:xlink="http://www.w3.org/1999/xlink" width="260" zoomAndPan="magnify" viewBox="0 0 375 374.999991" height="260" preserveAspectRatio="xMidYMid meet" version="1.0"><defs><g/><clipPath id="ec6ff1c8f9"><path d="M 9 138.492188 L 92 138.492188 L 92 192 L 9 192 Z M 9 138.492188 " clip-rule="nonzero"/></clipPath><clipPath id="d95e4bc2b7"><path d="M 11 180 L 107 180 L 107 236.742188 L 11 236.742188 Z M 11 180 " clip-rule="nonzero"/></clipPath></defs><rect x="-37.5" width="170" fill="#ffffff" y="-37.499999" height="280" fill-opacity="100"/><rect x="-37.5" width="170" fill="#ffffff" y="-37.499999" height="280" fill-opacity="0"/><rect x="-37.5" width="170" fill="#ffffff" y="-37.499999" height="280" fill-opacity="1"/><g clip-path="url(#ec6ff1c8f9)"><path fill="#ea650c" d="M 16.992188 190.699219 C 16.917969 189.683594 16.878906 188.65625 16.878906 187.617188 C 16.878906 183.425781 17.5 179.382812 18.652344 175.570312 C 20.230469 180.035156 25.777344 183.28125 29.632812 185.542969 C 30.761719 186.210938 31.921875 186.828125 33.003906 187.554688 C 35.074219 187.007812 37.117188 186.410156 39.136719 185.765625 C 38.742188 184.675781 38.558594 183.25 38.78125 182.5 C 39.347656 180.632812 41.082031 181.121094 42.707031 180.980469 C 48.027344 180.515625 46.386719 171.914062 48.757812 168.71875 C 50.492188 166.378906 53.988281 164.957031 54.003906 162.042969 C 54.011719 159.628906 51.4375 157.8125 51.394531 155.394531 C 51.386719 155.152344 51.410156 154.910156 51.449219 154.671875 C 51.589844 153.746094 51.953125 152.832031 51.890625 151.902344 C 51.753906 150.03125 50.019531 148.710938 48.59375 147.335938 C 51.640625 146.617188 54.816406 146.230469 58.082031 146.230469 C 62.320312 146.230469 66.414062 146.875 70.261719 148.070312 C 69.179688 151.0625 71.554688 156.175781 74.195312 157.855469 C 76.179688 159.121094 78.964844 159.613281 79.851562 161.796875 C 80.007812 162.183594 80.078125 162.574219 80.09375 162.957031 C 83.710938 159.804688 87.117188 156.417969 90.289062 152.796875 C 90.75 152.273438 91.074219 151.902344 91.363281 151.640625 C 82.636719 143.488281 70.941406 138.5 58.082031 138.5 C 31.078125 138.5 9.183594 160.492188 9.183594 187.625 C 9.183594 188.933594 9.230469 190.226562 9.332031 191.503906 C 11.914062 191.304688 14.464844 191.035156 16.992188 190.699219 Z M 16.992188 190.699219 " fill-opacity="1" fill-rule="nonzero"/></g><g clip-path="url(#d95e4bc2b7)"><path fill="#ea650c" d="M 100.753906 184.371094 C 100.402344 184.574219 100.148438 184.722656 100.03125 184.792969 C 92.007812 189.722656 83.402344 193.800781 74.410156 196.960938 C 74.363281 197.367188 74.359375 197.769531 74.433594 198.171875 C 74.839844 200.457031 77.070312 202.40625 79.375 202.476562 C 80.4375 202.511719 81.640625 202.261719 82.460938 202.941406 C 82.957031 203.351562 83.171875 204.007812 83.34375 204.632812 C 84.460938 208.714844 84.765625 213.015625 84.234375 217.214844 C 84.128906 218.058594 83.996094 218.921875 84.042969 219.765625 C 76.960938 225.550781 67.925781 229.015625 58.085938 229.015625 C 56.117188 229.015625 54.179688 228.875 52.285156 228.605469 C 52.304688 228.257812 52.335938 227.914062 52.386719 227.574219 C 52.652344 225.847656 53.550781 224.230469 54.878906 223.101562 C 55.761719 222.359375 56.925781 221.632812 56.953125 220.476562 C 56.984375 219.234375 55.703125 218.453125 54.839844 217.5625 C 53.15625 215.824219 52.957031 213.0625 54.414062 211.21875 C 56.3125 208.824219 58.117188 206.316406 59.90625 203.8125 C 60.511719 202.960938 61.152344 201.992188 61.007812 200.957031 C 61.007812 200.945312 61.003906 200.941406 61.003906 200.929688 C 53.300781 202.792969 45.402344 204.015625 37.40625 204.558594 C 35.496094 204.691406 33.601562 204.777344 31.71875 204.832031 C 31.539062 206.578125 31.679688 208.367188 32.179688 209.945312 C 33.257812 213.34375 36.183594 215.957031 39.515625 217.183594 C 40.390625 217.507812 41.324219 217.753906 42.058594 218.328125 C 42.800781 218.902344 43.300781 219.921875 42.945312 220.789062 C 42.734375 221.304688 42.246094 221.730469 42.238281 222.289062 C 42.234375 222.675781 42.46875 223.019531 42.691406 223.328125 C 43.101562 223.902344 43.878906 225.277344 44.800781 226.816406 C 33.996094 223.125 25.214844 215.039062 20.546875 204.691406 C 19.257812 204.621094 17.976562 204.535156 16.707031 204.425781 L 16.523438 204.410156 C 15.230469 204.300781 13.640625 204.15625 11.941406 203.917969 C 18.632812 223.039062 36.761719 236.75 58.085938 236.75 C 85.09375 236.75 106.988281 214.753906 106.988281 187.625 C 106.988281 185.308594 106.820312 183.027344 106.515625 180.796875 C 105.398438 181.644531 103.589844 182.726562 100.753906 184.371094 Z M 100.753906 184.371094 " fill-opacity="1" fill-rule="nonzero"/></g><path fill="#ea650c" d="M 75.28125 169.175781 C 74.761719 168.964844 55.222656 188.152344 16.296875 192.773438 C 14.003906 193.042969 7.011719 193.816406 5.117188 193.46875 C 2.96875 193.074219 1.175781 191.761719 3.300781 187.9375 C 1.855469 189.675781 0.113281 191.089844 0.09375 193.613281 C 0.0234375 201.121094 11.515625 202.035156 16.871094 202.496094 C 23.652344 203.085938 33.230469 202.441406 39.933594 201.277344 C 56.273438 198.441406 64.710938 193.269531 84.320312 183.390625 C 84.320312 183.390625 84.324219 177.628906 84.320312 173.273438 C 84.308594 173.261719 80.613281 171.355469 75.28125 169.175781 Z M 75.28125 169.175781 " fill-opacity="1" fill-rule="nonzero"/><path fill="#ea650c" d="M 127.597656 146.511719 C 126.230469 144.320312 120.550781 145.410156 118.371094 146.785156 L 116.011719 148.273438 L 92.613281 142.609375 C 91.941406 142.414062 91.164062 142.539062 90.511719 142.949219 C 89.144531 143.808594 88.84375 145.554688 89.90625 146.472656 L 102.160156 156.191406 L 89.464844 167.292969 L 83.472656 164.761719 C 82.765625 164.464844 81.964844 164.53125 81.320312 164.9375 L 79.210938 166.265625 C 78.714844 166.578125 78.738281 167.308594 79.253906 167.585938 L 87.070312 171.882812 L 87.4375 180.691406 C 87.460938 181.277344 88.109375 181.617188 88.597656 181.308594 L 90.707031 179.976562 C 91.355469 179.570312 91.765625 178.871094 91.804688 178.105469 L 92.117188 172.101562 L 107 165.050781 L 110.855469 182.886719 C 111.210938 184.246094 112.902344 184.734375 114.273438 183.875 C 114.921875 183.464844 115.375 182.816406 115.488281 182.121094 L 120.980469 156.234375 L 123.339844 154.746094 C 125.519531 153.371094 128.964844 148.699219 127.597656 146.511719 Z M 123.023438 153 C 123.484375 149.144531 119.683594 147.617188 119.683594 147.617188 C 119.683594 147.617188 123.566406 145.792969 124.96875 148.046875 C 126.445312 150.421875 123.023438 153 123.023438 153 Z M 123.023438 153 " fill-opacity="1" fill-rule="nonzero"/></svg>